<svg width="163" height="38" viewBox="0 0 163 38" fill="none" xmlns="http://www.w3.org/2000/svg">
<path d="M24.16 13.488C24.16 16.336 23.296 18.64 21.568 20.4C19.84 22.128 17.568 22.992 14.752 22.992C13.44 22.992 12.352 22.768 11.488 22.32C10.624 21.84 10.192 21.088 10.192 20.064C12.304 20.064 13.824 19.552 14.752 18.528C15.712 17.472 16.192 15.84 16.192 13.632C16.192 9.6 14.496 7.584 11.104 7.584C10.304 7.584 9.47201 7.664 8.60802 7.824V36H0.640015V4.656C4.76801 4.272 8.32001 4.08 11.296 4.08C15.296 4.08 18.432 4.8 20.704 6.24C23.008 7.648 24.16 10.064 24.16 13.488Z" fill="#0C0C0C"/>
<path d="M41.2308 33.84C40.6548 34.96 39.7908 35.776 38.6388 36.288C37.4868 36.8 36.1908 37.056 34.7508 37.056C32.2868 37.056 30.2068 36.416 28.5108 35.136C26.8148 33.856 25.9668 32.08 25.9668 29.808C25.9668 26.8 27.3588 24.752 30.1428 23.664C32.9268 22.576 36.4308 22.032 40.6548 22.032V17.856C40.6548 16.352 40.4468 15.2 40.0308 14.4C39.6148 13.6 38.7988 13.2 37.5828 13.2C36.4308 13.2 35.5348 13.552 34.8948 14.256C34.2548 14.928 33.9348 15.856 33.9348 17.04C33.9348 17.552 34.0308 18.32 34.2228 19.344C33.9988 19.504 33.6628 19.632 33.2148 19.728C32.7668 19.792 32.3508 19.824 31.9668 19.824C30.6548 19.824 29.5668 19.52 28.7028 18.912C27.8388 18.272 27.4068 17.36 27.4068 16.176C27.4068 14.352 28.4308 12.96 30.4788 12C32.5588 11.04 35.0388 10.56 37.9188 10.56C41.3748 10.56 43.9188 11.248 45.5508 12.624C47.1828 14 47.9988 16.32 47.9988 19.584V31.2C47.9988 32.096 48.1108 32.88 48.3348 33.552C48.5588 34.224 48.9428 34.816 49.4868 35.328C49.1348 35.776 48.6068 36.112 47.9028 36.336C47.2308 36.592 46.5428 36.72 45.8388 36.72C44.6548 36.72 43.6628 36.48 42.8628 36C42.0628 35.488 41.5188 34.768 41.2308 33.84ZM37.0068 33.744C38.2548 33.744 39.1668 33.232 39.7428 32.208C40.3508 31.184 40.6548 29.936 40.6548 28.464V24.432C35.9188 24.432 33.5508 26.16 33.5508 29.616C33.5508 30.832 33.8388 31.824 34.4148 32.592C35.0228 33.36 35.8868 33.744 37.0068 33.744Z" fill="#0C0C0C"/>
<path d="M50.8806 13.68V12.192C52.4166 11.616 53.9686 10.816 55.5366 9.792C57.1046 8.768 58.4006 7.68 59.4246 6.528H61.4886V11.52H65.9046V13.68H61.4406V30.768C61.4406 31.76 61.6166 32.528 61.9686 33.072C62.3526 33.584 62.9606 33.92 63.7926 34.08C63.4726 34.912 62.8806 35.552 62.0166 36C61.1526 36.48 60.1926 36.72 59.1366 36.72C57.4726 36.72 56.2086 36.272 55.3446 35.376C54.5126 34.48 54.0966 33.184 54.0966 31.488V13.68H50.8806Z" fill="#0C0C0C"/>
<path d="M78.2669 14.496C77.1149 14.496 76.3789 15.216 76.0589 16.656C75.7389 18.064 75.5789 19.888 75.5789 22.128V36H68.2349V11.52L74.2349 10.944L74.5709 15.264C75.0829 13.792 75.9149 12.64 77.0669 11.808C78.2189 10.976 79.5789 10.56 81.1469 10.56C82.9709 10.56 84.4109 11.088 85.4669 12.144C86.5549 13.168 87.0989 14.576 87.0989 16.368C87.0989 17.872 86.6989 19.024 85.8989 19.824C85.0989 20.624 83.9629 21.024 82.4909 21.024C82.1389 21.024 81.7229 20.976 81.2429 20.88C80.7629 20.784 80.4109 20.656 80.1869 20.496C80.4109 19.792 80.5229 18.96 80.5229 18C80.5229 15.664 79.7709 14.496 78.2669 14.496Z" fill="#0C0C0C"/>
<path d="M93.3093 0.671997C94.6213 0.671997 95.6613 0.975998 96.4293 1.584C97.2293 2.192 97.6293 3.04 97.6293 4.128C97.6293 5.248 97.2133 6.112 96.3813 6.72C95.5493 7.296 94.4773 7.584 93.1653 7.584C91.8853 7.584 90.8293 7.296 89.9973 6.72C89.1973 6.112 88.7973 5.28 88.7973 4.224C88.7973 3.104 89.2133 2.24 90.0453 1.632C90.9093 0.991998 91.9973 0.671997 93.3093 0.671997ZM96.7653 31.2C96.7653 32.096 96.8773 32.88 97.1013 33.552C97.3253 34.224 97.7093 34.816 98.2533 35.328C97.9013 35.776 97.3573 36.112 96.6213 36.336C95.9173 36.592 95.2133 36.72 94.5093 36.72C92.8453 36.72 91.5813 36.304 90.7173 35.472C89.8533 34.608 89.4213 33.344 89.4213 31.68V11.52H96.7653V31.2Z" fill="#0C0C0C"/>
<path d="M112.679 13.44C110.055 13.44 108.743 16.816 108.743 23.568C108.743 26.256 109.111 28.384 109.847 29.952C110.583 31.52 111.975 32.304 114.023 32.304C115.367 32.304 116.503 31.952 117.431 31.248C118.391 30.544 119.095 29.552 119.543 28.272C120.087 28.464 120.503 28.784 120.791 29.232C121.079 29.648 121.223 30.144 121.223 30.72C121.223 32.064 120.823 33.216 120.023 34.176C119.223 35.104 118.183 35.808 116.903 36.288C115.623 36.8 114.263 37.056 112.823 37.056C108.983 37.056 106.071 35.888 104.087 33.552C102.135 31.216 101.159 28.016 101.159 23.952C101.159 19.792 102.199 16.528 104.279 14.16C106.359 11.76 109.399 10.56 113.399 10.56C115.831 10.56 117.831 11.024 119.399 11.952C120.999 12.848 121.799 14.304 121.799 16.32C121.799 17.536 121.367 18.448 120.503 19.056C119.639 19.664 118.535 19.968 117.191 19.968C116.807 19.968 116.391 19.936 115.943 19.872C115.527 19.776 115.207 19.648 114.983 19.488C115.175 18.528 115.271 17.776 115.271 17.232C115.271 14.704 114.407 13.44 112.679 13.44Z" fill="#0C0C0C"/>
<path d="M125.523 36V2.4L132.867 1.632V36H125.523ZM140.931 11.52H147.747L140.259 21.408L147.987 36H139.827L133.539 22.512L140.931 11.52Z" fill="#0C0C0C"/>
<path d="M98 4C98 6.20914 95.7614 8 93 8C90.2386 8 88 6.20914 88 4C88 1.79086 90.2386 0 93 0C95.7614 0 98 1.79086 98 4Z" fill="#FF79C6"/>
<path d="M163 31C163 33.7614 160.761 36 158 36C155.239 36 153 33.7614 153 31C153 28.2386 155.239 26 158 26C160.761 26 163 28.2386 163 31Z" fill="#383A59"/>
</svg>
